solid zone0
 facet normal 0 0 -1
  outer loop
   vertex 0.5 -0.25 0.25
   vertex 0.5 0.25 0.25
   vertex 1.5 -0.25 0.25
  endloop
 endfacet
 facet normal 0 0 -1
  outer loop
   vertex 1.5 -0.25 0.25
   vertex 0.5 0.25 0.25
   vertex 1.5 0.25 0.25
  endloop
 endfacet
 facet normal -1 0 0
  outer loop
   vertex 0.5 -0.25 0.25
   vertex 0.5 -0.25 0.75
   vertex 0.5 0.25 0.75
  endloop
 endfacet
 facet normal -1 0 0
  outer loop
   vertex 0.5 -0.25 0.25
   vertex 0.5 0.25 0.75
   vertex 0.5 0.25 0.25
  endloop
 endfacet
 facet normal 0 0 1
  outer loop
   vertex 0.5 -0.25 0.75
   vertex 1.5 -0.25 0.75
   vertex 1.5 0.25 0.75
  endloop
 endfacet
 facet normal 0 0 1
  outer loop
   vertex 0.5 -0.25 0.75
   vertex 1.5 0.25 0.75
   vertex 0.5 0.25 0.75
  endloop
 endfacet
 facet normal 1 0 0
  outer loop
   vertex 1.5 -0.25 0.75
   vertex 1.5 -0.25 0.25
   vertex 1.5 0.25 0.25
  endloop
 endfacet
 facet normal 1 -0 0
  outer loop
   vertex 1.5 -0.25 0.75
   vertex 1.5 0.25 0.25
   vertex 1.5 0.25 0.75
  endloop
 endfacet
 facet normal 0 1 -0
  outer loop
   vertex 1.5 0.25 0.25
   vertex 0.5 0.25 0.25
   vertex 1.5 0.25 0.75
  endloop
 endfacet
 facet normal 0 1 0
  outer loop
   vertex 0.5 0.25 0.25
   vertex 0.5 0.25 0.75
   vertex 1.5 0.25 0.75
  endloop
 endfacet
 facet normal 0 -1 0
  outer loop
   vertex 0.5 -0.25 0.25
   vertex 1.5 -0.25 0.25
   vertex 1.5 -0.25 0.75
  endloop
 endfacet
 facet normal 0 -1 0
  outer loop
   vertex 0.5 -0.25 0.25
   vertex 1.5 -0.25 0.75
   vertex 0.5 -0.25 0.75
  endloop
 endfacet
endsolid zone0
