solid zone0
 facet normal 0 0 -1
  outer loop
   vertex 0.9 -0.09 -0.05
   vertex 0.9 0.11 -0.05
   vertex 1.1 -0.09 -0.05
  endloop
 endfacet
 facet normal 0 0 -1
  outer loop
   vertex 1.1 -0.09 -0.05
   vertex 0.9 0.11 -0.05
   vertex 1.1 0.11 -0.05
  endloop
 endfacet
 facet normal -1 0 0
  outer loop
   vertex 0.9 -0.09 -0.05
   vertex 0.9 -0.09 0.45
   vertex 0.9 0.11 0.45
  endloop
 endfacet
 facet normal -1 0 0
  outer loop
   vertex 0.9 -0.09 -0.05
   vertex 0.9 0.11 0.45
   vertex 0.9 0.11 -0.05
  endloop
 endfacet
 facet normal 0 0 1
  outer loop
   vertex 0.9 -0.09 0.45
   vertex 1.1 -0.09 0.45
   vertex 1.1 0.11 0.45
  endloop
 endfacet
 facet normal 0 0 1
  outer loop
   vertex 0.9 -0.09 0.45
   vertex 1.1 0.11 0.45
   vertex 0.9 0.11 0.45
  endloop
 endfacet
 facet normal 1 0 0
  outer loop
   vertex 1.1 -0.09 0.45
   vertex 1.1 -0.09 -0.05
   vertex 1.1 0.11 -0.05
  endloop
 endfacet
 facet normal 1 -0 0
  outer loop
   vertex 1.1 -0.09 0.45
   vertex 1.1 0.11 -0.05
   vertex 1.1 0.11 0.45
  endloop
 endfacet
 facet normal 0 1 -0
  outer loop
   vertex 1.1 0.11 -0.05
   vertex 0.9 0.11 -0.05
   vertex 1.1 0.11 0.45
  endloop
 endfacet
 facet normal 0 1 0
  outer loop
   vertex 0.9 0.11 -0.05
   vertex 0.9 0.11 0.45
   vertex 1.1 0.11 0.45
  endloop
 endfacet
 facet normal 0 -1 0
  outer loop
   vertex 0.9 -0.09 -0.05
   vertex 1.1 -0.09 -0.05
   vertex 1.1 -0.09 0.45
  endloop
 endfacet
 facet normal 0 -1 0
  outer loop
   vertex 0.9 -0.09 -0.05
   vertex 1.1 -0.09 0.45
   vertex 0.9 -0.09 0.45
  endloop
 endfacet
endsolid zone0
